<?xml version="1.0" encoding="iso-8859-1"?>
<!-- Generator: Adobe Illustrator 19.0.0, SVG Export Plug-In . SVG Version: 6.00 Build 0)  -->
<svg version="1.1" id="Capa_1" xmlns="http://www.w3.org/2000/svg" xmlns:xlink="http://www.w3.org/1999/xlink" x="0px" y="0px"
	 viewBox="0 0 512.4 512.4" style="enable-background:new 0 0 512.4 512.4;" xml:space="preserve">
<g>
	<g>
		<g>
			<circle cx="136.4" cy="252.2" r="16"/>
			<circle cx="384.4" cy="252.2" r="16"/>
			<path d="M424.4,268.2c-37.6,0-68.8,23.2-81.6,56h-62.4c-2.4,0-4,0.8-5.6,2.4L264.4,337L254,326.6c-1.6-1.6-3.2-2.4-5.6-2.4h-88
				c-2.4,0-4,0.8-5.6,2.4L144.4,337L134,326.6c-1.6-1.6-3.2-2.4-5.6-2.4h-88c-3.2,0-5.6,1.6-7.2,4l-32,56c-1.6,2.4-1.6,5.6,0,8
				c1.6,2.4,4,4,7.2,4h288v-16H22l23.2-40h80l13.6,13.6c3.2,3.2,8,3.2,11.2,0l13.6-13.6h81.6l13.6,13.6c3.2,3.2,8,3.2,11.2,0
				l13.6-13.6H338c-0.8,4.8-1.6,10.4-1.6,16c0,8,1.6,16,3.2,24h-27.2v16H346c13.6,26.4,39.2,44.8,70.4,47.2v16.8h-136v-32h-120v80
				h120v-32h152v-32.8c44.8-4,80-41.6,80-87.2C512.4,307.4,473.2,268.2,424.4,268.2z M264.4,492.2h-88v-48h88V492.2z M424.4,385.8
				c-16,0-29.6-13.6-29.6-29.6s13.6-29.6,29.6-29.6s29.6,13.6,29.6,29.6S440.4,385.8,424.4,385.8z M432.4,427.4v-27.2
				c21.6-4,37.6-22.4,37.6-44.8c0-24.8-20-45.6-45.6-45.6c-25.6,0-45.6,20-45.6,45.6c0,22.4,16,40.8,37.6,44.8v27.2
				c-36-4-64-34.4-64-71.2c0-40,32-72,72-72s72,32,72,72C496.4,393,468.4,423.4,432.4,427.4z"/>
			<path d="M461.2,132.2l-72-128H196.4l-96,128H0.4v128h80.8c4,27.2,27.2,48,55.2,48s51.2-20.8,55.2-48h144.8v-8
				c0-22.4,17.6-40,40-40c4.8,0,8.8,0.8,13.6,2.4l5.6-15.2c-6.4-2.4-12.8-3.2-19.2-3.2c-28,0-51.2,20.8-55.2,48H191.6
				c-4-27.2-27.2-48-55.2-48s-51.2,20.8-55.2,48H16.4v-96h92l96-128h175.2l72,128h44.8v96h-56v16h72v-128H461.2z M136.4,212.2
				c22.4,0,40,17.6,40,40c0,22.4-17.6,40-40,40c-22.4,0-40-17.6-40-40C96.4,229.8,114,212.2,136.4,212.2z"/>
			<path d="M264.4,148.2v-112h-36l-84,112H264.4z M236.4,52.2h12v80h-72L236.4,52.2z"/>
			<path d="M357.2,36.2h-68.8v112H422L357.2,36.2z M304.4,52.2h43.2l46.4,80h-89.6V52.2z"/>
			<rect x="360.4" y="164.2" width="56" height="16"/>
			<rect x="432.4" y="164.2" width="16" height="16"/>
			<rect x="464.4" y="164.2" width="16" height="16"/>
			<rect x="200.4" y="460.2" width="16" height="16"/>
			<rect x="224.4" y="460.2" width="16" height="16"/>
			<polygon points="45.2,74.6 56.4,63.4 67.6,74.6 78.8,63.4 67.6,52.2 78.8,41 67.6,29.8 56.4,41 45.2,29.8 34,41 45.2,52.2 
				34,63.4 			"/>
		</g>
	</g>
</g>
<g>
</g>
<g>
</g>
<g>
</g>
<g>
</g>
<g>
</g>
<g>
</g>
<g>
</g>
<g>
</g>
<g>
</g>
<g>
</g>
<g>
</g>
<g>
</g>
<g>
</g>
<g>
</g>
<g>
</g>
</svg>
